<?xml version="1.0" standalone="no"?>
<!DOCTYPE svg PUBLIC "-//W3C//DTD SVG 20010904//EN"
 "http://www.w3.org/TR/2001/REC-SVG-20010904/DTD/svg10.dtd">
<svg version="1.0" xmlns="http://www.w3.org/2000/svg"
     width="512.000000pt" height="512.000000pt" viewBox="0 0 512.000000 512.000000"
     preserveAspectRatio="xMidYMid meet">

  <!-- Define the gradient -->
  <defs>
    <linearGradient id="myGradient" x1="0%" y1="0%" x2="100%" y2="0%">
      <stop offset="0%" style="stop-color:#170cb4; stop-opacity:1" />
      <stop offset="50%" style="stop-color:#830aaf; stop-opacity:1" />
      <stop offset="100%" style="stop-color:#ff00ff; stop-opacity:1" />
    </linearGradient>
  </defs>

  <!-- Apply the gradient to the paths -->
  <g transform="translate(0.000000,512.000000) scale(0.100000,-0.100000)"
     fill="url(#myGradient)" stroke="none">
    <path d="M78 4589 c-23 -12 -46 -35 -58 -59 -20 -39 -20 -56 -20 -1520 0
    -1434 1 -1482 19 -1518 11 -22 35 -46 59 -60 l40 -22 664 0 663 0 130 -131
    c224 -225 246 -225 470 0 l130 131 117 0 118 0 0 -240 c0 -222 2 -244 20 -280
    37 -72 67 -80 307 -80 l208 0 130 -131 c224 -225 246 -225 470 0 l130 131 663
    0 c645 0 664 1 702 20 26 13 47 34 60 60 20 39 20 56 20 1520 0 1464 0 1481
    -20 1520 -13 26 -34 47 -60 60 -39 20 -56 20 -1185 20 l-1145 0 0 240 c0 222
    -2 244 -20 280 -13 26 -34 47 -60 60 -39 20 -56 20 -1277 20 -1213 -1 -1239
    -1 -1275 -21z m2332 -1579 l0 -1300 -165 0 c-132 0 -173 -3 -198 -16 -18 -9
    -78 -62 -134 -117 l-103 -102 -102 102 c-57 55 -117 108 -135 117 -28 14 -103
    16 -653 16 l-620 0 0 1300 0 1300 1055 0 1055 0 0 -1300z m2410 -600 l0 -1300
    -620 0 c-555 0 -624 -2 -653 -16 -18 -9 -78 -62 -135 -117 l-102 -101 -103
    101 c-56 55 -116 108 -134 117 -25 13 -66 16 -198 16 l-165 0 0 1300 0 1300
    1055 0 1055 0 0 -1300z"/>
    <path d="M1280 3708 c-24 -13 -52 -34 -62 -48 -10 -14 -118 -285 -238 -602
    -157 -412 -220 -589 -220 -618 0 -102 91 -171 189 -141 53 15 78 47 121 153
    l37 93 249 3 249 2 29 -80 c35 -100 62 -140 106 -162 97 -49 210 21 210 129 0
    63 -427 1193 -467 1235 -56 61 -129 73 -203 36z m140 -672 c33 -86 60 -164 60
    -172 0 -11 -23 -14 -125 -14 -87 0 -125 3 -125 11 0 14 123 339 127 335 2 -1
    30 -73 63 -160z"/>
    <path d="M3701 3113 c-65 -34 -90 -93 -91 -210 l0 -63 -177 0 c-157 0 -181 -2
    -217 -20 -53 -26 -78 -62 -83 -119 -7 -85 58 -161 137 -161 l37 0 16 -66 c23
    -91 93 -236 155 -317 29 -37 52 -72 52 -76 0 -4 -36 -28 -80 -52 -133 -73
    -139 -78 -160 -111 -58 -96 15 -228 126 -228 37 0 180 69 277 134 37 25 69 46
    72 46 2 0 42 -25 88 -55 108 -70 223 -125 262 -125 110 0 183 132 125 228 -21
    33 -27 38 -160 111 -44 24 -80 48 -80 52 0 4 23 39 52 76 62 81 132 226 155
    317 l16 66 37 0 c72 0 140 72 140 149 0 51 -37 108 -85 131 -37 18 -62 20
    -217 20 l-175 0 -5 89 c-6 97 -22 139 -69 174 -38 28 -106 32 -148 10z m209
    -587 c0 -24 -78 -168 -113 -210 l-33 -39 -33 42 c-37 47 -111 184 -111 207 0
    11 25 14 145 14 119 0 145 -3 145 -14z"/>
  </g>
</svg>
