<svg width="400" height="142" viewBox="0 0 400 142" fill="none" xmlns="http://www.w3.org/2000/svg">
<path d="M152.776 74.752C152.776 72.032 153.32 69.648 154.408 67.6C155.528 65.52 157.064 63.92 159.016 62.8C160.968 61.68 163.208 61.12 165.736 61.12C168.936 61.12 171.576 61.888 173.656 63.424C175.768 64.928 177.192 67.088 177.928 69.904H172.024C171.544 68.592 170.776 67.568 169.72 66.832C168.664 66.096 167.336 65.728 165.736 65.728C163.496 65.728 161.704 66.528 160.36 68.128C159.048 69.696 158.392 71.904 158.392 74.752C158.392 77.6 159.048 79.824 160.36 81.424C161.704 83.024 163.496 83.824 165.736 83.824C168.904 83.824 171 82.432 172.024 79.648H177.928C177.16 82.336 175.72 84.48 173.608 86.08C171.496 87.648 168.872 88.432 165.736 88.432C163.208 88.432 160.968 87.872 159.016 86.752C157.064 85.6 155.528 84 154.408 81.952C153.32 79.872 152.776 77.472 152.776 74.752ZM183.957 74.656C183.957 72 184.501 69.648 185.589 67.6C186.709 65.552 188.213 63.968 190.101 62.848C192.021 61.696 194.133 61.12 196.437 61.12C198.517 61.12 200.325 61.536 201.861 62.368C203.429 63.168 204.677 64.176 205.605 65.392V61.552H211.125V88H205.605V84.064C204.677 85.312 203.413 86.352 201.813 87.184C200.213 88.016 198.389 88.432 196.341 88.432C194.069 88.432 191.989 87.856 190.101 86.704C188.213 85.52 186.709 83.888 185.589 81.808C184.501 79.696 183.957 77.312 183.957 74.656ZM205.605 74.752C205.605 72.928 205.221 71.344 204.453 70C203.717 68.656 202.741 67.632 201.525 66.928C200.309 66.224 198.997 65.872 197.589 65.872C196.181 65.872 194.869 66.224 193.653 66.928C192.437 67.6 191.445 68.608 190.677 69.952C189.941 71.264 189.573 72.832 189.573 74.656C189.573 76.48 189.941 78.08 190.677 79.456C191.445 80.832 192.437 81.888 193.653 82.624C194.901 83.328 196.213 83.68 197.589 83.68C198.997 83.68 200.309 83.328 201.525 82.624C202.741 81.92 203.717 80.896 204.453 79.552C205.221 78.176 205.605 76.576 205.605 74.752ZM230.313 88.432C228.233 88.432 226.361 88.064 224.697 87.328C223.065 86.56 221.769 85.536 220.809 84.256C219.849 82.944 219.337 81.488 219.273 79.888H224.937C225.033 81.008 225.561 81.952 226.521 82.72C227.513 83.456 228.745 83.824 230.217 83.824C231.753 83.824 232.937 83.536 233.769 82.96C234.633 82.352 235.065 81.584 235.065 80.656C235.065 79.664 234.585 78.928 233.625 78.448C232.697 77.968 231.209 77.44 229.161 76.864C227.177 76.32 225.561 75.792 224.313 75.28C223.065 74.768 221.977 73.984 221.049 72.928C220.153 71.872 219.705 70.48 219.705 68.752C219.705 67.344 220.121 66.064 220.953 64.912C221.785 63.728 222.969 62.8 224.505 62.128C226.073 61.456 227.865 61.12 229.881 61.12C232.889 61.12 235.305 61.888 237.129 63.424C238.985 64.928 239.977 66.992 240.105 69.616H234.633C234.537 68.432 234.057 67.488 233.193 66.784C232.329 66.08 231.161 65.728 229.689 65.728C228.249 65.728 227.145 66 226.377 66.544C225.609 67.088 225.225 67.808 225.225 68.704C225.225 69.408 225.481 70 225.993 70.48C226.505 70.96 227.129 71.344 227.865 71.632C228.601 71.888 229.689 72.224 231.129 72.64C233.049 73.152 234.617 73.68 235.833 74.224C237.081 74.736 238.153 75.504 239.049 76.528C239.945 77.552 240.409 78.912 240.441 80.608C240.441 82.112 240.025 83.456 239.193 84.64C238.361 85.824 237.177 86.752 235.641 87.424C234.137 88.096 232.361 88.432 230.313 88.432ZM246.929 74.752C246.929 72.032 247.473 69.648 248.561 67.6C249.681 65.52 251.217 63.92 253.169 62.8C255.121 61.68 257.361 61.12 259.889 61.12C263.089 61.12 265.729 61.888 267.809 63.424C269.921 64.928 271.345 67.088 272.081 69.904H266.177C265.697 68.592 264.929 67.568 263.873 66.832C262.817 66.096 261.489 65.728 259.889 65.728C257.649 65.728 255.857 66.528 254.513 68.128C253.201 69.696 252.545 71.904 252.545 74.752C252.545 77.6 253.201 79.824 254.513 81.424C255.857 83.024 257.649 83.824 259.889 83.824C263.057 83.824 265.153 82.432 266.177 79.648H272.081C271.313 82.336 269.873 84.48 267.761 86.08C265.649 87.648 263.025 88.432 259.889 88.432C257.361 88.432 255.121 87.872 253.169 86.752C251.217 85.6 249.681 84 248.561 81.952C247.473 79.872 246.929 77.472 246.929 74.752ZM278.11 74.656C278.11 72 278.654 69.648 279.742 67.6C280.862 65.552 282.366 63.968 284.254 62.848C286.174 61.696 288.286 61.12 290.59 61.12C292.67 61.12 294.478 61.536 296.014 62.368C297.582 63.168 298.83 64.176 299.758 65.392V61.552H305.278V88H299.758V84.064C298.83 85.312 297.566 86.352 295.966 87.184C294.366 88.016 292.542 88.432 290.494 88.432C288.222 88.432 286.142 87.856 284.254 86.704C282.366 85.52 280.862 83.888 279.742 81.808C278.654 79.696 278.11 77.312 278.11 74.656ZM299.758 74.752C299.758 72.928 299.374 71.344 298.606 70C297.87 68.656 296.894 67.632 295.678 66.928C294.462 66.224 293.15 65.872 291.742 65.872C290.334 65.872 289.022 66.224 287.806 66.928C286.59 67.6 285.598 68.608 284.83 69.952C284.094 71.264 283.726 72.832 283.726 74.656C283.726 76.48 284.094 78.08 284.83 79.456C285.598 80.832 286.59 81.888 287.806 82.624C289.054 83.328 290.366 83.68 291.742 83.68C293.15 83.68 294.462 83.328 295.678 82.624C296.894 81.92 297.87 80.896 298.606 79.552C299.374 78.176 299.758 76.576 299.758 74.752ZM320.338 65.392C321.138 64.048 322.194 63.008 323.506 62.272C324.85 61.504 326.434 61.12 328.258 61.12V66.784H326.866C324.722 66.784 323.09 67.328 321.97 68.416C320.882 69.504 320.338 71.392 320.338 74.08V88H314.866V61.552H320.338V65.392ZM338.471 58.048C337.479 58.048 336.647 57.712 335.975 57.04C335.303 56.368 334.967 55.536 334.967 54.544C334.967 53.552 335.303 52.72 335.975 52.048C336.647 51.376 337.479 51.04 338.471 51.04C339.431 51.04 340.247 51.376 340.919 52.048C341.591 52.72 341.927 53.552 341.927 54.544C341.927 55.536 341.591 56.368 340.919 57.04C340.247 57.712 339.431 58.048 338.471 58.048ZM341.159 61.552V88H335.687V61.552H341.159ZM357.128 66.016V80.656C357.128 81.648 357.352 82.368 357.8 82.816C358.28 83.232 359.08 83.44 360.2 83.44H363.56V88H359.24C356.776 88 354.888 87.424 353.576 86.272C352.264 85.12 351.608 83.248 351.608 80.656V66.016H348.488V61.552H351.608V54.976H357.128V61.552H363.56V66.016H357.128ZM369.179 74.656C369.179 72 369.723 69.648 370.811 67.6C371.931 65.552 373.435 63.968 375.323 62.848C377.243 61.696 379.355 61.12 381.659 61.12C383.739 61.12 385.547 61.536 387.083 62.368C388.651 63.168 389.899 64.176 390.827 65.392V61.552H396.347V88H390.827V84.064C389.899 85.312 388.635 86.352 387.035 87.184C385.435 88.016 383.611 88.432 381.563 88.432C379.291 88.432 377.211 87.856 375.323 86.704C373.435 85.52 371.931 83.888 370.811 81.808C369.723 79.696 369.179 77.312 369.179 74.656ZM390.827 74.752C390.827 72.928 390.443 71.344 389.675 70C388.939 68.656 387.963 67.632 386.747 66.928C385.531 66.224 384.219 65.872 382.811 65.872C381.403 65.872 380.091 66.224 378.875 66.928C377.659 67.6 376.667 68.608 375.899 69.952C375.163 71.264 374.795 72.832 374.795 74.656C374.795 76.48 375.163 78.08 375.899 79.456C376.667 80.832 377.659 81.888 378.875 82.624C380.123 83.328 381.435 83.68 382.811 83.68C384.219 83.68 385.531 83.328 386.747 82.624C387.963 81.92 388.939 80.896 389.675 79.552C390.443 78.176 390.827 76.576 390.827 74.752Z" fill="white"/>
<path d="M114 33.4134V54.3733C114 55.6953 113.214 56.8909 112.001 57.4153L88.0653 67.7593C85.3996 68.9113 85.3996 72.6913 88.0653 73.8433L112.001 84.1873C113.214 84.7117 114 85.9073 114 87.2293V108.189C114 110.653 111.407 112.255 109.204 111.153L58.8319 85.9673C57.7092 85.4059 57 84.2584 57 83.0032V58.5994C57 57.3442 57.7092 56.1967 58.8319 55.6353L109.204 30.4493C111.407 29.3476 114 30.9499 114 33.4134Z" fill="white"/>
<path d="M0 30.1546C0 28.8993 0.709194 27.7518 1.83191 27.1905L55.5131 0.349863C56.4461 -0.116621 57.5442 -0.116621 58.4772 0.349863L79.5646 10.8935C82.0071 12.1148 82.0071 15.6004 79.5646 16.8217L30.3295 41.4393C29.2068 42.0006 28.4976 43.1481 28.4976 44.4033V97.2492C28.4976 98.5044 29.2068 99.6519 30.3295 100.213L79.5646 124.831C82.0071 126.052 82.0071 129.538 79.5646 130.759L58.4772 141.303C57.5442 141.769 56.4461 141.769 55.5131 141.303L1.83191 114.462C0.709194 113.901 0 112.753 0 111.498V30.1546Z" fill="white"/>
</svg>
