<?xml version="1.0" standalone="no"?>
<!DOCTYPE svg PUBLIC "-//W3C//DTD SVG 20010904//EN"
 "http://www.w3.org/TR/2001/REC-SVG-20010904/DTD/svg10.dtd">
<svg version="1.0" xmlns="http://www.w3.org/2000/svg"
     width="512.000000pt" height="512.000000pt" viewBox="0 0 512.000000 512.000000"
     preserveAspectRatio="xMidYMid meet">

  <!-- Define the gradient -->
  <defs>
    <linearGradient id="myGradient" x1="0%" y1="0%" x2="100%" y2="0%">
      <stop offset="0%" style="stop-color:#170cb4; stop-opacity:1" />
      <stop offset="50%" style="stop-color:#830aaf; stop-opacity:1" />
      <stop offset="100%" style="stop-color:#ff00ff; stop-opacity:1" />
    </linearGradient>
  </defs>

  <!-- Apply the gradient to the paths -->
  <g transform="translate(0.000000,512.000000) scale(0.100000,-0.100000)"
     fill="url(#myGradient)" stroke="none">
    <path d="M425 4781 c-94 -27 -184 -80 -255 -151 -76 -76 -123 -159 -150 -266
    -19 -75 -20 -116 -20 -1423 0 -1292 1 -1348 19 -1381 26 -51 84 -82 142 -77
    43 4 83 29 480 313 239 170 460 323 493 339 l60 30 1011 5 c1120 6 1038 1
    1180 72 84 43 200 162 243 252 63 130 62 102 62 1196 0 1110 5 1038 -69 1087
    l-34 23 -1551 -1 c-1438 0 -1555 -2 -1611 -18z m2963 -1193 l-3 -913 -27 -51
    c-29 -56 -68 -93 -132 -127 l-41 -22 -1010 -6 c-824 -4 -1019 -8 -1060 -19
    -98 -28 -214 -99 -512 -313 l-303 -217 0 1175 c0 1148 0 1175 20 1227 23 63
    85 128 150 157 45 20 59 21 1483 21 l1437 0 -2 -912z"/>
    <path d="M1036 3980 c-34 -11 -73 -45 -92 -82 -31 -60 -6 -144 55 -185 l34
    -23 912 0 912 0 34 23 c92 61 90 181 -4 251 -28 21 -32 21 -925 23 -493 1
    -910 -2 -926 -7z"/>
    <path d="M1036 3280 c-34 -11 -73 -45 -92 -82 -31 -60 -6 -144 55 -185 l34
    -23 912 0 912 0 34 23 c92 61 90 181 -4 251 -28 21 -32 21 -925 23 -493 1
    -910 -2 -926 -7z"/>
    <path d="M4068 3620 c-43 -23 -78 -82 -78 -131 0 -45 36 -103 80 -128 35 -20
    52 -21 272 -21 287 0 315 -6 394 -85 90 -90 84 6 82 -1327 l-3 -1166 -311 221
    c-291 207 -353 248 -429 278 -115 45 -74 43 -1140 49 l-1010 5 -41 22 c-55 29
    -119 103 -138 160 -11 31 -16 82 -16 151 0 118 -13 159 -64 195 -43 31 -129
    31 -172 0 -57 -41 -67 -78 -62 -232 4 -103 10 -152 27 -203 28 -88 109 -207
    179 -265 65 -53 173 -106 250 -122 37 -8 345 -11 1007 -11 1003 0 1016 -1
    1106 -46 25 -12 230 -154 455 -315 225 -161 423 -300 439 -311 69 -42 170 -12
    208 62 16 33 17 114 15 1405 l-3 1370 -27 74 c-63 171 -200 308 -367 363 -60
    20 -89 22 -341 25 -260 3 -277 2 -312 -17z"/>
  </g>
</svg>
