<?xml version="1.0" standalone="no"?>
<!DOCTYPE svg PUBLIC "-//W3C//DTD SVG 20010904//EN"
 "http://www.w3.org/TR/2001/REC-SVG-20010904/DTD/svg10.dtd">
<svg version="1.0" xmlns="http://www.w3.org/2000/svg"
 width="350.000000pt" height="106.000000pt" viewBox="0 0 350.000000 106.000000"
 preserveAspectRatio="xMidYMid meet">

<g transform="translate(0.000000,106.000000) scale(0.100000,-0.100000)"
fill="#000000" stroke="none">
<path d="M280 772 c0 -5 7 -17 16 -28 14 -17 15 -17 10 -1 -3 10 -6 23 -6 28
0 5 -4 9 -10 9 -5 0 -10 -4 -10 -8z"/>
<path d="M577 730 c-16 -5 -76 -39 -134 -76 -85 -54 -107 -64 -115 -53 -8 11
-9 10 -4 -3 6 -21 -7 -35 -73 -77 -28 -18 -51 -35 -51 -38 0 -5 13 2 67 39 23
15 46 28 51 28 8 0 54 -231 47 -238 -5 -6 -215 122 -215 130 0 5 5 8 11 8 6 0
8 8 4 19 -3 12 10 51 35 102 50 101 71 149 65 149 -8 0 -126 -254 -128 -274
-2 -15 24 -36 108 -88 164 -102 184 -112 210 -100 12 6 66 79 120 164 54 84
115 179 135 210 35 52 36 58 21 71 -37 32 -100 43 -154 27z m112 -21 c17 -6
31 -16 31 -21 0 -13 -83 -147 -91 -148 -8 0 -99 137 -99 149 0 26 104 39 159
20z m-120 -116 l48 -76 -76 -118 c-116 -181 -140 -176 -177 32 -19 104 -21
135 -11 140 6 4 44 30 82 57 39 27 73 47 77 45 4 -2 30 -38 57 -80z"/>
<path d="M306 680 c3 -25 10 -49 14 -54 5 -4 4 11 -1 35 -14 63 -20 72 -13 19z"/>
<path d="M1349 701 c-20 -16 -22 -22 -12 -44 8 -17 26 -30 53 -38 29 -9 40
-17 40 -32 0 -18 -5 -19 -50 -14 -51 6 -65 -4 -31 -23 49 -26 114 3 109 48 -2
21 -12 30 -47 42 -51 17 -61 34 -32 49 14 8 27 8 45 -1 32 -14 48 -1 22 18
-27 20 -69 18 -97 -5z"/>
<path d="M1560 634 c-22 -47 -40 -88 -40 -90 0 -2 7 -4 15 -4 9 0 20 11 25 25
8 21 16 25 50 25 34 0 42 -4 50 -25 5 -14 16 -25 25 -25 8 0 15 2 15 4 0 17
-81 176 -90 176 -6 0 -29 -39 -50 -86z m68 11 c16 -35 16 -35 -18 -35 -16 0
-30 2 -30 5 0 11 24 55 30 55 4 0 12 -11 18 -25z"/>
<path d="M1762 633 c2 -56 7 -88 15 -90 8 -3 13 15 15 59 l3 63 45 -62 c25
-34 51 -63 58 -63 9 0 12 25 12 90 0 72 -3 90 -15 90 -10 0 -15 -16 -17 -61
l-3 -61 -44 61 c-62 85 -72 82 -69 -26z"/>
<path d="M1977 714 c-11 -12 3 -24 28 -24 23 0 24 -4 27 -72 2 -46 7 -73 16
-76 9 -3 12 16 12 72 l0 76 30 0 c20 0 30 5 30 15 0 12 -14 15 -68 15 -38 0
-72 -3 -75 -6z"/>
<path d="M2195 643 c-20 -43 -36 -82 -36 -88 -1 -21 21 -15 32 9 10 21 19 26
51 26 31 0 41 -5 50 -25 10 -22 45 -38 36 -17 -50 124 -74 172 -85 172 -7 0
-29 -35 -48 -77z m71 -30 c-2 -3 -15 -3 -28 -1 -24 3 -24 4 -10 38 l14 35 14
-34 c8 -19 12 -36 10 -38z"/>
<path d="M2533 705 c-28 -20 -39 -76 -23 -114 15 -36 62 -58 98 -45 43 15 39
33 -6 27 -35 -5 -42 -2 -57 21 -14 21 -16 34 -8 59 9 30 12 32 56 31 30 0 47
4 47 12 0 27 -73 33 -107 9z"/>
<path d="M2720 630 c0 -72 3 -90 14 -90 10 0 16 13 18 38 2 31 6 36 23 34 11
-2 25 -10 30 -19 41 -64 75 -71 41 -8 -17 31 -17 35 -2 50 41 41 1 85 -76 85
l-48 0 0 -90z m105 34 c0 -15 -9 -20 -37 -22 -35 -3 -38 -1 -38 22 0 15 7 26
18 28 28 7 57 -8 57 -28z"/>
<path d="M2940 650 c0 -81 19 -110 70 -110 51 0 70 29 70 110 0 56 -3 70 -15
70 -12 0 -15 -14 -15 -62 0 -76 -8 -91 -46 -86 -29 3 -29 4 -32 76 -2 55 -6
72 -17 72 -12 0 -15 -15 -15 -70z"/>
<path d="M3152 708 c3 -7 24 -14 47 -16 l42 -3 -46 -65 c-25 -35 -43 -69 -40
-74 3 -6 33 -10 66 -10 46 0 59 3 59 15 0 11 -12 15 -46 15 l-45 0 45 64 c26
35 46 69 46 75 0 7 -24 11 -66 11 -48 0 -65 -3 -62 -12z"/>
<path d="M891 430 c-13 -74 -28 -141 -34 -147 -6 -9 -6 -13 2 -13 6 0 11 5 11
10 0 6 5 10 12 10 14 0 229 133 223 138 -2 2 -52 -25 -111 -62 -59 -36 -109
-65 -110 -63 -1 1 7 52 17 112 11 61 18 119 17 130 -2 11 -14 -41 -27 -115z"/>
<path d="M1330 473 c-1 -23 56 -173 66 -173 6 0 21 27 33 61 13 33 25 59 27
56 2 -2 12 -28 23 -58 27 -80 42 -75 75 26 26 82 28 111 5 88 -6 -6 -19 -37
-29 -69 -11 -35 -21 -53 -24 -44 -3 8 -13 37 -23 64 -10 26 -22 48 -28 48 -5
0 -18 -22 -28 -48 -10 -27 -20 -56 -23 -64 -4 -9 -15 11 -28 49 -12 36 -28 67
-34 69 -7 2 -12 0 -12 -5z"/>
<path d="M1676 459 c-22 -17 -26 -28 -26 -70 0 -60 24 -89 73 -89 45 0 75 24
83 65 16 88 -64 146 -130 94z m88 -25 c38 -37 1 -123 -47 -108 -12 4 -25 12
-29 18 -12 18 -9 81 4 94 17 17 54 15 72 -4z"/>
<path d="M1887 473 c-3 -5 -5 -45 -6 -90 0 -67 2 -83 14 -83 10 0 15 11 15 35
0 31 3 35 25 35 19 0 29 -9 42 -35 11 -22 24 -35 36 -35 18 0 18 1 -2 36 -20
34 -21 38 -6 54 23 25 15 62 -15 77 -27 14 -96 17 -103 6z m100 -39 c8 -21
-24 -46 -52 -42 -13 2 -21 12 -23 31 -3 25 -1 27 33 27 24 0 38 -5 42 -16z"/>
<path d="M2110 473 c-7 -105 -5 -173 7 -173 8 0 13 13 13 35 0 19 4 35 8 35 4
0 23 -16 42 -35 19 -19 43 -35 54 -35 17 0 13 9 -26 46 l-47 45 39 35 c22 20
40 40 40 45 0 19 -28 7 -60 -26 -19 -19 -38 -35 -42 -35 -4 0 -8 16 -8 35 0
19 -4 35 -10 35 -5 0 -10 -3 -10 -7z"/>
<path d="M2322 464 c-24 -17 -29 -56 -9 -72 6 -6 24 -13 39 -17 39 -10 52 -29
32 -46 -12 -10 -22 -10 -46 -1 -37 14 -59 4 -33 -15 28 -20 89 -17 109 6 32
35 13 59 -66 85 -10 3 -18 15 -18 27 0 20 4 21 45 16 50 -7 62 7 19 23 -35 14
-46 13 -72 -6z"/>
<path d="M808 263 c6 -2 18 -2 25 0 6 3 1 5 -13 5 -14 0 -19 -2 -12 -5z"/>
</g>
</svg>
